<svg width="92" height="90" viewBox="0 0 92 90" fill="none" xmlns="http://www.w3.org/2000/svg">
<g clip-path="url(#clip0)">
<path d="M28.2577 63.5001C28.2591 59.3603 28.4797 55.6499 28.9158 52.3898V47.5899V40.4828V28.0919C29.1383 28.5482 29.3626 29.0716 29.5843 29.6822C30.5209 32.2782 31.3242 36.3514 31.4935 42.4617C33.0213 39.1033 34.8495 37.474 36.193 36.6892C36.4851 36.5159 36.7841 36.3682 37.0868 36.2429C36.403 30.1609 34.9873 26.2367 33.2412 23.568C32.0084 21.6972 30.566 20.497 29.2339 19.8327C27.9436 19.1818 26.8094 19.038 26.1344 19.0312C26.0949 19.0296 26.056 19.0251 26.0157 19.0251H11.5178C11.4746 19.0251 11.4321 19.0298 11.3888 19.0318C10.7131 19.0391 9.58291 19.184 8.29811 19.8323C6.27928 20.8327 4.1036 23.0225 2.58134 26.9027C1.04002 30.7975 0.00514099 36.4285 0 44.9313C0 47.1282 0.0707355 49.5179 0.223164 52.1205C0.316602 53.7157 1.64099 54.947 3.21897 54.9473C3.27762 54.9473 3.33624 54.9455 3.3956 54.9422C5.05126 54.8444 6.31411 53.4243 6.21733 51.7694C6.07075 49.2731 6.00445 46.9996 6.00445 44.9313C5.99124 35.8445 7.31637 30.7398 8.61764 28.0756V40.4828V47.5899V84.3648C8.61764 86.9279 10.6955 89.0042 13.257 89.0042C15.8193 89.0042 17.8971 86.9279 17.8971 84.3648V50.4901H19.6364V84.3648C19.6364 86.9279 21.7142 89.0042 24.2757 89.0042C26.838 89.0042 28.9158 86.9279 28.9158 84.3648V66.3079C28.5127 65.7803 28.2687 65.1268 28.2621 64.4177C28.2591 64.1041 28.2577 63.7984 28.2577 63.5001Z" fill="white"/>
<path d="M18.7667 16.8865C23.4298 16.8865 27.21 13.1063 27.21 8.44323C27.21 3.78016 23.4298 0 18.7667 0C14.1037 0 10.3235 3.78016 10.3235 8.44323C10.3235 13.1063 14.1037 16.8865 18.7667 16.8865Z" fill="white"/>
<path d="M62.0266 85.1543C62.0266 87.227 63.7065 88.9068 65.7792 88.9068C67.8507 88.9068 69.5317 87.227 69.5317 85.1543V66.5626C66.6403 66.526 64.1345 66.2416 62.0266 65.8506V85.1543Z" fill="white"/>
<path d="M70.7828 85.1541C70.7828 87.2268 72.4619 88.9066 74.5353 88.9066C76.6066 88.9066 78.2879 87.2268 78.2879 85.1541V65.8501C76.18 66.2415 73.6738 66.5259 70.7828 66.5625V85.1541Z" fill="white"/>
<path d="M68.3282 19.3886C72.6668 20.3986 77.0031 17.7007 78.013 13.3618C79.023 9.02297 76.3251 4.68702 71.987 3.67631C67.6477 2.66635 63.3121 5.36495 62.3014 9.70312C61.2907 14.042 63.989 18.3787 68.3282 19.3886Z" fill="white"/>
<path d="M53.8842 36.6899C54.4896 37.0446 55.2793 37.6264 56.1104 38.5544C57.466 34.6874 58.9838 32.1005 60.3485 30.3853L58.0922 41.4738C60.5871 46.2332 61.8063 53.4562 61.8151 63.4986L61.8136 64.1032L61.8129 64.4015C61.8126 64.5067 61.8063 64.6108 61.7957 64.7134C64.0996 65.155 66.8913 65.4745 70.1568 65.4745C79.6375 65.4745 85.1403 62.7888 86.218 62.2087C86.3485 62.1386 86.4181 62.0972 86.4181 62.0972L79.967 30.3906C79.9974 30.4286 80.0267 30.4619 80.0571 30.5006C82.5772 33.7228 85.5983 39.94 87.1426 51.6565C87.3181 52.9915 88.5436 53.9318 89.8797 53.7566C91.2147 53.5793 92.155 52.3542 91.9788 51.0188C90.2487 37.9082 86.6896 30.7107 83.2588 26.7127C80.0945 23.0094 77.051 22.2049 76.2357 22.0742C75.5383 21.9018 72.9599 21.2953 70.1575 21.2865C67.3556 21.2953 64.779 21.9011 64.0798 22.0739C63.2678 22.2036 60.2214 23.0063 57.0552 26.7127C55.2767 28.785 53.4646 31.72 51.8899 35.8894C51.9999 35.9121 52.1079 35.9409 52.2139 35.976C52.7782 36.1277 53.3396 36.3689 53.8842 36.6899Z" fill="white"/>
<path d="M36.5257 59.5621V61.5726V85.1879C36.5257 87.3295 38.262 89.0658 40.4036 89.0658C42.5445 89.0658 44.2807 87.3295 44.2807 85.1879V67.7664H45.7942V85.1879C45.7942 87.3295 47.5305 89.0658 49.6714 89.0658C51.8123 89.0658 53.5485 87.3295 53.5485 85.1879V61.5726V59.5621H36.5257Z" fill="white"/>
<path d="M61.0624 64.3994C61.0631 64.0996 61.0646 63.7999 61.0646 63.4994C61.0544 51.2142 59.1788 44.6846 56.9434 40.9562C55.825 39.1012 54.5827 37.9689 53.5024 37.3363C52.9248 36.9955 52.4081 36.8043 51.9999 36.695C51.8298 36.6379 51.651 36.6005 51.4648 36.5851C51.3688 36.5719 51.2838 36.5631 51.2244 36.5602C51.08 36.5521 50.9379 36.5587 50.7993 36.5756H39.2705C39.1327 36.5594 38.9927 36.5528 38.8498 36.5609L38.8491 36.5602C38.7897 36.5631 38.7054 36.5719 38.6094 36.5851C38.4233 36.6005 38.2444 36.6379 38.0744 36.695C37.6662 36.8043 37.1494 36.9948 36.5719 37.3363C34.9375 38.2913 32.9975 40.345 31.5434 44.3233C30.0797 48.3155 29.0111 54.2807 29.0082 63.5001C29.0082 63.7962 29.0089 64.0996 29.0119 64.4111C29.0243 65.7509 30.1149 66.8268 31.4517 66.8268C31.4591 66.8268 31.4671 66.8268 31.4745 66.8268C32.8223 66.8137 33.9026 65.7113 33.8902 64.3642C33.8872 64.0755 33.8865 63.7874 33.8865 63.5001C33.877 53.6526 35.197 48.0399 36.5257 44.9975V50.6308V57.9556H53.5485V50.6308V45.0034C54.8817 48.0406 56.1929 53.6607 56.187 63.4994C56.187 63.7837 56.1856 64.0755 56.1841 64.3752C56.1775 65.7223 57.2637 66.8202 58.6115 66.8268C58.6159 66.8268 58.6203 66.8268 58.624 66.8268C59.966 66.8268 61.0558 65.7428 61.0624 64.3994Z" fill="white"/>
<path d="M45.0867 34.6448C49.4203 34.6175 52.9112 31.082 52.8839 26.748C52.8566 22.414 49.3214 18.9228 44.9878 18.9501C40.6543 18.9774 37.1633 22.5129 37.1906 26.8469C37.2179 31.1809 40.7531 34.6721 45.0867 34.6448Z" fill="white"/>
</g>
<defs>
<clipPath id="clip0">
<rect width="92" height="89.0658" fill="white"/>
</clipPath>
</defs>
</svg>
