<svg width="26" height="34" viewBox="0 0 26 34" fill="none" xmlns="http://www.w3.org/2000/svg">
<path d="M18.4328 0H0.884605C0.396046 0 0 0.396046 0 1.16456V33.2558C0 33.4644 0.396046 33.8605 0.884605 33.8605H25.1154C25.604 33.8605 26 33.4644 26 33.2558V7.84716C26 7.42632 25.9438 7.29088 25.8446 7.19112L18.8089 0.155395C18.7091 0.0562325 18.5737 0 18.4328 0Z" fill="#E9E9E0"/>
<path d="M18.7441 0.0915527V7.25606H25.9087L18.7441 0.0915527Z" fill="#D9D7CA"/>
<path d="M7.86902 20.1495C7.6586 20.1495 7.45665 20.0811 7.28432 19.9524C6.65488 19.4801 6.57023 18.9547 6.61013 18.5967C6.72018 17.6124 7.93734 16.582 10.229 15.5323C11.1384 13.5394 12.0036 11.0839 12.5194 9.03235C11.9159 7.71905 11.3294 6.01514 11.7569 5.01565C11.9069 4.66556 12.0937 4.39709 12.4426 4.281C12.5805 4.23505 12.9287 4.177 13.0569 4.177C13.3617 4.177 13.6295 4.56942 13.8194 4.81128C13.9978 5.03863 14.4023 5.52054 13.5939 8.92412C14.4089 10.6075 15.5638 12.3223 16.6703 13.4965C17.463 13.3532 18.1451 13.28 18.7007 13.28C19.6476 13.28 20.2214 13.5007 20.4554 13.9554C20.6489 14.3315 20.5697 14.7711 20.2196 15.2615C19.8828 15.7325 19.4185 15.9816 18.8773 15.9816C18.142 15.9816 17.2859 15.5172 16.3311 14.6C14.6157 14.9585 12.6125 15.5983 10.9932 16.3063C10.4878 17.379 10.0034 18.243 9.55237 18.8767C8.9326 19.7444 8.39809 20.1495 7.86902 20.1495ZM9.4786 17.05C8.18646 17.7762 7.65981 18.373 7.62171 18.7092C7.61567 18.7648 7.59934 18.9111 7.88232 19.1276C7.97241 19.0992 8.49846 18.8591 9.4786 17.05ZM17.7242 14.3642C18.217 14.7433 18.3373 14.935 18.6596 14.935C18.8011 14.935 19.2044 14.9289 19.3912 14.6683C19.4813 14.5419 19.5164 14.4609 19.5303 14.4174C19.4559 14.3781 19.3574 14.2983 18.8199 14.2983C18.5145 14.2989 18.1305 14.3122 17.7242 14.3642ZM13.2075 10.3844C12.7752 11.8803 12.2044 13.4953 11.5906 14.9579C12.8544 14.4676 14.2281 14.0395 15.5185 13.7365C14.7022 12.7884 13.8865 11.6045 13.2075 10.3844ZM12.8405 5.26779C12.7812 5.28775 12.0363 6.33016 12.8985 7.21235C13.4723 5.93351 12.8665 5.25933 12.8405 5.26779Z" fill="#CC4B4C"/>
<path d="M25.1154 33.8604H0.884605C0.396046 33.8604 0 33.4643 0 32.9758V23.5813H26V32.9758C26 33.4643 25.604 33.8604 25.1154 33.8604Z" fill="#CC4B4C"/>
<path d="M6.58159 32.0463H5.58936V25.9539H7.34163C7.60043 25.9539 7.8568 25.995 8.11015 26.0778C8.36349 26.1606 8.59084 26.2846 8.79219 26.4497C8.99354 26.6147 9.15619 26.8149 9.28015 27.0489C9.4041 27.2829 9.46638 27.5459 9.46638 27.8386C9.46638 28.1475 9.41377 28.4269 9.30917 28.6778C9.20456 28.9287 9.05824 29.1398 8.8708 29.3103C8.68335 29.4808 8.45722 29.6132 8.19298 29.7069C7.92875 29.8006 7.6361 29.8472 7.31684 29.8472H6.58098V32.0463H6.58159ZM6.58159 26.706V29.1198H7.49098C7.61191 29.1198 7.73163 29.0993 7.85075 29.0575C7.96926 29.0164 8.0781 28.9487 8.17726 28.855C8.27643 28.7613 8.35624 28.6306 8.4167 28.4626C8.47717 28.2945 8.5074 28.0865 8.5074 27.8386C8.5074 27.7394 8.4935 27.6245 8.46629 27.4957C8.43847 27.3663 8.38224 27.2424 8.29698 27.1239C8.21112 27.0053 8.0914 26.9062 7.93722 26.8264C7.78303 26.7466 7.57866 26.7066 7.32531 26.7066H6.58159V26.706Z" fill="white"/>
<path d="M15.5509 28.8305C15.5509 29.3318 15.4971 29.7605 15.3895 30.116C15.2818 30.4716 15.1458 30.7691 14.9801 31.0091C14.8145 31.2491 14.6288 31.4378 14.422 31.5757C14.2152 31.7135 14.0157 31.8163 13.8228 31.8858C13.6299 31.9548 13.4534 31.9989 13.2938 32.0183C13.1341 32.0364 13.0156 32.0461 12.9382 32.0461H10.6321V25.9536H12.4672C12.9799 25.9536 13.4304 26.0352 13.8186 26.1973C14.2068 26.3593 14.5297 26.5764 14.786 26.8461C15.0424 27.1158 15.2335 27.4235 15.3605 27.7676C15.4874 28.1122 15.5509 28.4665 15.5509 28.8305ZM12.6081 31.3187C13.2805 31.3187 13.7654 31.104 14.0629 30.6741C14.3604 30.2442 14.5091 29.6214 14.5091 28.8058C14.5091 28.5524 14.4789 28.3015 14.4184 28.0536C14.3573 27.8057 14.2406 27.5813 14.0671 27.38C13.8936 27.1786 13.6578 27.016 13.3603 26.892C13.0628 26.7681 12.677 26.7058 12.203 26.7058H11.6243V31.3187H12.6081Z" fill="white"/>
<path d="M17.9981 26.7058V28.6238H20.5442V29.3016H17.9981V32.0461H16.9895V25.9536H20.8V26.7058H17.9981Z" fill="white"/>
</svg>
