<svg width="34" height="34" viewBox="0 0 34 34" fill="none" xmlns="http://www.w3.org/2000/svg">
<g clip-path="url(#clip0_55_33)">
<path fill-rule="evenodd" clip-rule="evenodd" d="M16.93 0C7.57935 0 0 7.57935 0 16.93C0 26.2796 7.57935 33.86 16.93 33.86C26.2796 33.86 33.86 26.2807 33.86 16.93C33.86 7.57935 26.2796 0 16.93 0ZM16.93 31.7438C8.74858 31.7438 2.11625 25.1114 2.11625 16.93C2.11625 8.74858 8.74858 2.11625 16.93 2.11625C25.1114 2.11625 31.7438 8.74858 31.7438 16.93C31.7438 25.1114 25.1114 31.7438 16.93 31.7438Z" fill="#121313"/>
<path fill-rule="evenodd" clip-rule="evenodd" d="M24.0501 22.5074L18.4759 16.9321L24.0183 11.4351C24.4363 11.0214 24.4363 10.3516 24.0183 9.93896C23.6014 9.52629 22.9242 9.52629 22.5073 9.93896L16.9723 15.4285L11.3547 9.80987C10.9378 9.39085 10.2606 9.39085 9.84369 9.80987C9.42679 10.2278 9.42679 10.9071 9.84369 11.3251L15.4528 16.9353L9.81194 22.5296C9.39504 22.9433 9.39504 23.6131 9.81194 24.0258C10.2288 24.4395 10.906 24.4395 11.324 24.0258L16.9575 18.4389L22.5401 24.0215C22.957 24.4406 23.6342 24.4406 24.0511 24.0215C24.467 23.6046 24.467 22.9264 24.0501 22.5074Z" fill="#121313"/>
</g>
<defs>
<clipPath id="clip0_55_33">
<rect width="33.86" height="33.86" fill="white"/>
</clipPath>
</defs>
</svg>
