<svg width="120" height="112" viewBox="0 0 120 112" fill="none" xmlns="http://www.w3.org/2000/svg">
<path d="M82.4246 106.867C82.4246 109.466 84.5304 111.572 87.1288 111.572C89.7262 111.572 91.8329 109.466 91.8329 106.867V83.6006C88.2296 83.5565 85.089 83.2142 82.4246 82.7356V106.867Z" fill="black"/>
<path d="M93.4015 106.867C93.4015 109.466 95.5069 111.572 98.1057 111.572C100.702 111.572 102.81 109.466 102.81 106.867V82.7356C100.145 83.2142 97.0048 83.5564 93.4015 83.6007V106.867Z" fill="black"/>
<path d="M100.583 26.4198C101.983 26.6689 105.993 27.802 110.221 32.8004C110.475 32.4095 110.662 31.9666 110.757 31.4814C111.158 29.4422 109.83 27.4638 107.79 27.063C104.124 26.3423 100.376 25.7814 96.7152 25.3445C96.4742 25.4365 96.23 25.5218 95.9816 25.5978C98.1243 25.845 99.8859 26.247 100.583 26.4198Z" fill="black"/>
<path d="M70.6502 78.6598L71.6069 73.9578V67.4626C70.7836 68.3745 69.598 68.9444 68.2981 68.9446C68.102 68.9446 67.9031 68.9315 67.7073 68.9055C65.2657 68.5835 63.5402 66.3341 63.8618 63.891C65.4874 51.5634 68.4235 43.2819 71.6069 37.7189V31.3768C72.8806 31.3856 74.4437 31.408 76.2311 31.4561C79.9921 27.5913 83.3872 26.6446 84.6516 26.4196C85.3486 26.2468 87.1101 25.8448 89.2529 25.5977C88.3138 25.3105 87.4254 24.9067 86.6045 24.4027C77.3071 23.7614 69.9367 23.8286 68.1432 23.8578C68.0858 23.8551 68.0293 23.8492 67.9713 23.8492H49.7967C49.6841 23.8492 49.5731 23.856 49.463 23.866L37.85 23.9104C38.6604 24.3742 39.5035 24.9764 40.3483 25.77C41.893 27.2214 43.2161 29.1067 44.3207 31.4125L46.1611 31.4054V36.3301C48.2168 43.4303 48.8963 53.151 48.1787 65.42C48.0875 66.9739 47.3137 68.3347 46.1611 69.2209V105.759C46.1611 108.972 48.7658 111.575 51.977 111.575C55.1891 111.575 57.7939 108.972 57.7939 105.759V63.2936H59.9742V105.759C59.9742 108.972 62.5789 111.575 65.7901 111.575C69.0022 111.575 71.6069 108.972 71.6069 105.759V79.2314C71.5582 79.2036 71.5215 79.1821 71.5065 79.1732L70.6502 78.6598Z" fill="black"/>
<path d="M58.8835 21.1689C64.7298 21.1689 69.4679 16.4302 69.4679 10.5844C69.4679 4.73863 64.7298 0 58.8835 0C53.0382 0 48.2991 4.73863 48.2991 10.5844C48.2991 16.4302 53.0383 21.1689 58.8835 21.1689ZM65.486 14.6451C64.1177 16.8614 61.6738 18.3464 58.8836 18.3464C56.0933 18.3464 53.6494 16.8615 52.2811 14.6451H65.486Z" fill="black"/>
<path d="M39.3818 26.799C36.7483 24.3249 34.175 23.8948 32.8479 23.8616C32.7693 23.8565 32.6912 23.8496 32.6115 23.8496H14.4369C14.3605 23.8496 14.286 23.8564 14.2107 23.861C12.8867 23.8917 10.3074 24.3169 7.66615 26.799C1.60128 32.4973 -0.884512 45.4637 0.278223 65.338C0.395357 67.3383 2.05377 68.8818 4.03146 68.8816C4.10541 68.8816 4.1803 68.8795 4.25472 68.8751C6.32979 68.7539 7.91331 66.9732 7.79204 64.8984C6.825 48.368 8.69821 39.5569 10.8013 35.1833V50.749V59.6585V105.76C10.8013 108.973 13.4061 111.575 16.6172 111.575C19.8293 111.575 22.4341 108.973 22.4341 105.76V63.2941H24.6144V105.76C24.6144 108.973 27.2191 111.575 30.4303 111.575C33.6424 111.575 36.2471 108.973 36.2471 105.76V59.6585V50.749V35.1844C38.35 39.5584 40.223 48.3696 39.2559 64.8984C39.1346 66.9732 40.7182 68.7539 42.7932 68.8751C42.8681 68.8795 42.9421 68.8816 43.0165 68.8816C44.9942 68.8816 46.6526 67.338 46.7697 65.338C47.9325 45.464 45.4467 32.4976 39.3818 26.799Z" fill="black"/>
<path d="M12.9393 10.5844C12.9393 16.4302 17.6785 21.1689 23.5238 21.1689C29.37 21.1689 34.1082 16.4302 34.1082 10.5844C34.1082 4.73863 29.37 0 23.5238 0C17.6785 0 12.9393 4.73863 12.9393 10.5844ZM30.1262 14.6451C28.7579 16.8614 26.314 18.3464 23.5238 18.3464C20.7335 18.3464 18.2896 16.8615 16.9213 14.6451H30.1262Z" fill="black"/>
<path d="M100.291 27.8013C99.485 27.5996 96.0772 26.8024 92.6175 26.8024C89.1574 26.8024 85.7496 27.5996 84.9433 27.8013C82.5173 28.2136 69.5013 31.9204 65.2611 64.0753C65.0406 65.7495 66.2185 67.2858 67.893 67.5065C69.5665 67.7284 71.1032 66.5489 71.3241 64.8746C73.2695 50.123 77.0658 42.3391 80.3118 38.2536L72.2325 77.9628C72.2325 77.9628 79.2948 82.1965 92.6172 82.1965C105.94 82.1965 113.002 77.9628 113.002 77.9628L104.926 38.2711C108.165 42.3667 111.97 50.1578 113.91 64.8746C114.113 66.4134 115.427 67.5331 116.938 67.5331C117.072 67.5329 117.206 67.5244 117.342 67.5065C119.016 67.2858 120.194 65.7496 119.973 64.0753C115.733 31.9204 102.717 28.2136 100.291 27.8013Z" fill="black"/>
<path d="M92.6174 24.6882C98.2032 24.6882 102.731 20.16 102.731 14.5742C102.731 8.98841 98.2032 4.46021 92.6174 4.46021C87.0316 4.46021 82.5034 8.98841 82.5034 14.5742C82.5034 20.16 87.0315 24.6882 92.6174 24.6882ZM99.2196 18.2509C97.8513 20.4672 95.4074 21.9523 92.6172 21.9523C89.8269 21.9523 87.383 20.4673 86.0147 18.2509H99.2196Z" fill="black"/>
</svg>
